<svg width="231" height="225" viewBox="0 0 231 225" fill="none" xmlns="http://www.w3.org/2000/svg">
<ellipse cx="125.556" cy="112.599" rx="104.444" ry="99.7643" fill="#F4E4D6"/>
<path d="M131.397 53.7402C168.497 53.7403 198.521 83.448 198.521 120.031C198.521 156.615 168.497 186.322 131.397 186.322C94.2975 186.322 64.2734 156.615 64.2734 120.031C64.2735 83.448 94.2975 53.7402 131.397 53.7402Z" fill="#795548" stroke="#302318" stroke-width="5"/>
<path d="M195.596 114.454C197.857 154.427 168.945 183.71 130.493 183.71C101.106 180.921 92.0644 169.766 89.3517 167.906L195.596 114.454Z" fill="#5D4037"/>
<path d="M143.769 45.6626C145.426 45.6626 146.769 44.3194 146.769 42.6626V31C146.769 29.3431 145.426 28 143.769 28H116.765C115.108 28 113.765 29.3431 113.765 31V42.6626C113.765 44.3194 115.108 45.6626 116.765 45.6626H130.041H138.405H143.769Z" fill="#382621"/>
<path d="M173.443 60.0715L183.307 66.0812C184.633 66.8892 186.357 66.5514 187.28 65.3026L192.426 58.3419C193.423 56.9936 193.121 55.0901 191.756 54.1163L174.577 41.8613C173.209 40.8859 171.308 41.223 170.359 42.6091L165.122 50.2604C164.214 51.5874 164.513 53.3946 165.801 54.3576L173.443 60.0715Z" fill="#382621"/>
<path d="M170.73 64.2548L173.443 60.0715M173.443 60.0715L183.307 66.0812C184.633 66.8892 186.357 66.5514 187.28 65.3026L192.426 58.3419C193.423 56.9936 193.121 55.0901 191.756 54.1163L174.577 41.8613C173.209 40.8859 171.308 41.223 170.359 42.6091L165.122 50.2604C164.214 51.5874 164.513 53.3946 165.801 54.3576L173.443 60.0715ZM130.041 52.6347V45.6626M130.041 45.6626H116.765C115.108 45.6626 113.765 44.3194 113.765 42.6626V31C113.765 29.3431 115.108 28 116.765 28H143.769C145.426 28 146.769 29.3431 146.769 31V42.6626C146.769 44.3194 145.426 45.6626 143.769 45.6626H138.405H130.041ZM61.7734 86.5654H34.1951M53.1835 103.298H21.9883M50.923 120.961H3M53.1835 140.483H24.701" stroke="#302318" stroke-width="5" stroke-linecap="round"/>
<path d="M65.1835 153.221C71.2207 161.814 73.6356 167.952 88.125 178.387M94.1622 183.912C115.293 196.802 172.888 203.8 200.418 148.31" stroke="#302318" stroke-width="3" stroke-linecap="round"/>
<mask id="path-7-inside-1_2_320" fill="white">
<path d="M179.32 120.496C179.32 146.937 157.864 168.371 131.397 168.371C104.93 168.371 83.4744 146.937 83.4744 120.496C83.4744 94.0556 104.93 72.6213 131.397 72.6213C157.864 72.6213 179.32 94.0556 179.32 120.496Z"/>
</mask>
<path d="M179.32 120.496C179.32 146.937 157.864 168.371 131.397 168.371C104.93 168.371 83.4744 146.937 83.4744 120.496C83.4744 94.0556 104.93 72.6213 131.397 72.6213C157.864 72.6213 179.32 94.0556 179.32 120.496Z" fill="#FEFEFE"/>
<path d="M127.541 87.0302C127.541 88.4109 128.66 89.5302 130.041 89.5302C131.422 89.5302 132.541 88.4109 132.541 87.0302H127.541ZM155.558 93.4836C154.501 94.3724 154.365 95.9494 155.254 97.006C156.143 98.0626 157.72 98.1987 158.777 97.3099L155.558 93.4836ZM164.853 120.32C163.472 120.32 162.353 121.44 162.353 122.82C162.353 124.201 163.472 125.32 164.853 125.32V120.32ZM156.026 144.581C154.952 143.713 153.377 143.88 152.51 144.954C151.642 146.028 151.81 147.602 152.884 148.47L156.026 144.581ZM132.541 151.638C132.541 150.257 131.422 149.138 130.041 149.138C128.66 149.138 127.541 150.257 127.541 151.638H132.541ZM106.515 150.128C107.478 149.138 107.456 147.555 106.466 146.592C105.477 145.63 103.894 145.652 102.931 146.641L106.515 150.128ZM98.3938 125.32C99.7745 125.32 100.894 124.201 100.894 122.82C100.894 121.44 99.7745 120.32 98.3938 120.32V125.32ZM101.989 97.4824C103.14 98.2437 104.691 97.927 105.453 96.7752C106.214 95.6233 105.897 94.0724 104.745 93.3111L101.989 97.4824ZM132.541 108.411C132.541 107.031 131.422 105.911 130.041 105.911C128.66 105.911 127.541 107.031 127.541 108.411H132.541ZM130.041 122.82V125.32C131.422 125.32 132.541 124.201 132.541 122.82H130.041ZM118.738 120.32C117.358 120.32 116.238 121.44 116.238 122.82C116.238 124.201 117.358 125.32 118.738 125.32V120.32ZM130.041 75.8749H127.541V87.0302H130.041H132.541V75.8749H130.041ZM162.14 91.2135L160.531 89.3003L155.558 93.4836L157.167 95.3967L158.777 97.3099L163.75 93.1266L162.14 91.2135ZM175.251 122.82V120.32H164.853V122.82V125.32H175.251V122.82ZM160.784 151.638L162.355 149.693L156.026 144.581L154.455 146.525L152.884 148.47L159.213 153.583L160.784 151.638ZM130.041 164.188H132.541V151.638H130.041H127.541V164.188H130.041ZM101.559 151.638L103.351 153.381L106.515 150.128L104.723 148.385L102.931 146.641L99.7664 149.895L101.559 151.638ZM87.5433 122.82V125.32H98.3938V122.82V120.32H87.5433V122.82ZM97.0375 91.2135L95.6591 93.2991L101.989 97.4824L103.367 95.3967L104.745 93.3111L98.4159 89.1278L97.0375 91.2135ZM130.041 108.411H127.541V122.82H130.041H132.541V108.411H130.041ZM130.041 122.82V120.32H118.738V122.82V125.32H130.041V122.82ZM179.32 120.496H174.32C174.32 144.171 155.108 163.371 131.397 163.371V168.371V173.371C160.621 173.371 184.32 149.703 184.32 120.496H179.32ZM131.397 168.371V163.371C107.687 163.371 88.4744 144.171 88.4744 120.496H83.4744H78.4744C78.4744 149.703 102.174 173.371 131.397 173.371V168.371ZM83.4744 120.496H88.4744C88.4744 96.8218 107.687 77.6213 131.397 77.6213V72.6213V67.6213C102.174 67.6213 78.4744 91.2895 78.4744 120.496H83.4744ZM131.397 72.6213V77.6213C155.108 77.6213 174.32 96.8218 174.32 120.496H179.32H184.32C184.32 91.2895 160.621 67.6213 131.397 67.6213V72.6213Z" fill="#302318" mask="url(#path-7-inside-1_2_320)"/>
<path d="M79.6724 36.6719C81.7465 36.6719 83.399 38.2925 83.399 40.2559C83.3989 42.2192 81.7465 43.8398 79.6724 43.8398C77.5985 43.8396 75.9468 42.219 75.9468 40.2559C75.9468 38.2927 77.5985 36.6721 79.6724 36.6719Z" stroke="#302318"/>
<path d="M204.039 28.504C206.114 28.504 207.766 30.1247 207.766 32.088C207.766 34.0513 206.114 35.672 204.039 35.672C201.966 35.6717 200.314 34.0512 200.314 32.088C200.314 30.1248 201.966 28.5043 204.039 28.504Z" stroke="#302318"/>
<path d="M187.135 187.193C189.209 187.193 190.862 188.814 190.862 190.777C190.862 192.741 189.209 194.361 187.135 194.361C185.061 194.361 183.41 192.741 183.41 190.777C183.41 188.814 185.061 187.194 187.135 187.193Z" stroke="#302318"/>
<path d="M53.109 169.691C54.5162 169.691 55.6275 170.789 55.6275 172.108C55.6275 173.427 54.5162 174.525 53.109 174.525C51.7018 174.525 50.5904 173.427 50.5904 172.108C50.5905 170.789 51.7018 169.691 53.109 169.691Z" stroke="#302318"/>
<path d="M216.718 109.682L219.034 108.564C220.45 107.879 222.155 108.405 222.94 109.77L223.114 110.073C223.923 111.48 225.704 111.989 227.134 111.221L230 109.682" stroke="#302318"/>
<path d="M87.9738 222.881L88.8242 220.625C89.3822 219.144 91.0477 218.352 92.6043 218.827L92.8429 218.9C94.4486 219.39 96.1591 218.531 96.6656 216.981L97.6204 214.059" stroke="#302318"/>
<path d="M125.405 10.5176L126.255 8.26125C126.813 6.78058 128.479 5.98849 130.035 6.46342L130.274 6.53621C131.879 7.02612 133.59 6.16749 134.096 4.61729L135.051 1.69492" stroke="#302318"/>
<path d="M23.3253 50.5938L25.6377 51.4335C27.1702 51.9901 27.9789 53.6148 27.4708 55.1164L27.3978 55.3322C26.8737 56.8811 27.7512 58.5504 29.3563 59.0576L32.3561 60.0055" stroke="#302318"/>
</svg>
