<?xml version="1.0" encoding="UTF-8"?><svg id="Layer_2" xmlns="http://www.w3.org/2000/svg" width="684.63" height="528.19" viewBox="0 0 684.63 528.19"><defs><style>.cls-1{fill:#231f20;}</style></defs><g id="Layer_1-2"><polygon class="cls-1" points="684.63 528.19 476.45 528.19 475.83 527.14 442.12 469.5 373.13 351.57 407.55 291.16 510.25 466.73 508.67 469.5 580.42 469.5 544.07 407.37 441.37 231.8 407.1 173.22 373.28 232.58 338.86 292.99 302.26 357.22 336.53 415.79 367.95 469.5 402.28 528.19 336.81 528.19 304.23 472.49 302.48 469.5 269.96 413.91 238.29 469.5 206.76 524.84 204.85 528.19 0 528.19 33.44 469.5 102.99 347.45 166.19 236.52 198.49 179.82 235.09 115.6 269.51 55.18 300.95 0 371.53 0 339.08 56.95 305.26 116.31 270.84 176.72 234.25 240.94 201.94 297.64 138.74 408.57 104.02 469.5 174.39 469.5 173.87 468.62 237.07 357.7 269.38 301 305.97 236.77 340.39 176.36 374.21 117 408.69 56.49 441.58 112.71 475.84 171.28 578.55 346.86 650.3 469.5 684.63 528.19"/></g></svg>